<?xml version="1.0" standalone="no"?>
<!DOCTYPE svg PUBLIC "-//W3C//DTD SVG 20010904//EN"
 "http://www.w3.org/TR/2001/REC-SVG-20010904/DTD/svg10.dtd">
<svg version="1.0" xmlns="http://www.w3.org/2000/svg"
 width="700.000000pt" height="700.000000pt" viewBox="0 0 700.000000 700.000000"
 preserveAspectRatio="xMidYMid meet">
<metadata>
Created by potrace 1.14, written by Peter Selinger 2001-2017
</metadata>
<g transform="translate(0.000000,700.000000) scale(0.100000,-0.100000)"
fill="#000000" stroke="none">
<path d="M3315 6981 c-220 -47 -379 -134 -535 -291 -132 -133 -226 -302 -266
-480 -4 -19 -8 -37 -9 -40 -14 -54 -18 -236 -19 -775 l-1 -650 -30 -15 c-216
-108 -335 -283 -336 -495 -2 -209 111 -396 296 -492 l71 -36 0 -779 c0 -428
-3 -778 -6 -779 -3 -1 -322 -2 -710 -4 -388 -1 -723 -5 -745 -10 -146 -27
-289 -134 -363 -273 -155 -290 0 -656 317 -751 31 -10 79 -18 107 -20 l51 -2
-1 128 -1 128 -48 7 c-140 20 -232 126 -230 266 2 111 64 203 170 249 35 16
112 17 873 18 l835 1 2 610 c1 335 2 612 2 617 1 4 76 7 169 7 l167 0 0 -1327
-1 -1328 -22 -45 c-49 -103 -131 -154 -247 -154 -56 0 -80 5 -121 27 -80 41
-129 108 -141 192 l-6 45 -127 0 -128 0 4 -47 c21 -223 181 -410 399 -467 72
-18 208 -15 278 8 122 39 246 142 304 252 67 127 64 58 65 1521 0 1229 1 1323
16 1324 9 1 86 2 170 3 l152 1 1 -1305 c0 -718 2 -1323 4 -1345 23 -215 183
-400 394 -454 306 -77 614 139 647 457 l6 52 -132 0 c-72 0 -129 -4 -126 -8 9
-14 -20 -106 -45 -144 -27 -42 -99 -93 -149 -106 -96 -24 -222 15 -280 88 -65
82 -61 -7 -61 1438 0 721 2 1315 5 1320 2 4 78 7 168 7 l163 -1 2 -604 c1
-333 2 -611 2 -617 1 -10 186 -13 844 -15 l842 -3 41 -22 c93 -50 144 -123
152 -219 13 -158 -97 -282 -260 -293 -16 -1 -18 -14 -18 -131 l0 -130 24 0
c94 0 259 64 331 128 148 133 215 339 170 517 -50 194 -204 351 -390 396 -36
9 -243 13 -755 14 -388 2 -709 3 -715 4 -7 1 -10 268 -10 781 l0 780 30 12
c17 6 55 27 85 46 214 135 307 411 219 647 -45 121 -154 241 -267 295 l-67 33
-1 646 c0 355 -3 671 -6 701 -39 358 -284 688 -614 828 -177 75 -414 100 -589
63z m-691 -2671 c154 -34 247 -144 261 -307 2 -26 0 -52 -5 -58 -13 -16 -156
0 -223 25 -120 45 -196 151 -205 285 l-4 72 64 -3 c36 -2 86 -8 112 -14z
m1943 -44 c-18 -209 -143 -316 -387 -331 l-58 -4 4 59 c4 82 19 130 57 187 64
95 177 146 336 149 l53 1 -5 -61z"/>
<path d="M1200 5923 c-201 -26 -373 -165 -440 -357 -25 -69 -36 -156 -22 -165
14 -8 227 -6 241 3 6 4 11 18 11 32 0 90 102 201 200 219 149 27 264 -34 315
-169 18 -47 19 -103 19 -1223 0 -805 3 -1173 11 -1174 41 -4 605 -3 606 1 3
12 5 236 2 245 -2 6 -71 10 -183 9 l-180 -1 -1 1046 c0 575 -2 1061 -4 1079
-11 106 -88 248 -177 326 -106 92 -269 145 -398 129z"/>
<path d="M5664 5914 c-85 -17 -140 -41 -211 -91 -114 -80 -196 -212 -217 -348
-2 -16 -5 -503 -5 -1081 l-1 -1051 -176 1 c-97 1 -180 -1 -184 -4 -5 -3 -8
-58 -8 -123 1 -98 4 -119 17 -125 21 -10 588 -8 598 2 4 4 9 535 9 1179 1 645
4 1182 7 1194 14 57 67 127 121 158 109 63 257 44 339 -44 44 -47 54 -68 68
-130 6 -28 16 -51 22 -52 7 0 62 -1 122 -2 l110 -1 1 44 c2 104 -54 227 -146
321 -128 132 -298 188 -466 153z"/>
<path d="M570 4653 c-14 -2 -52 -13 -85 -25 -181 -63 -316 -229 -341 -418 -11
-85 -19 -80 121 -80 93 0 125 3 126 13 4 63 41 147 81 184 12 11 43 32 68 45
61 31 176 32 236 1 60 -32 110 -87 132 -145 20 -54 21 -109 22 -1628 l0 -115
607 0 608 0 1 128 2 127 -296 0 c-164 0 -380 2 -482 3 l-185 2 -1 735 -1 735
-27 79 c-62 181 -196 305 -377 350 -60 15 -149 19 -209 9z"/>
<path d="M6244 4644 c-198 -41 -366 -212 -404 -413 -6 -33 -10 -325 -10 -772
l0 -719 -477 0 c-262 0 -479 -2 -482 -5 -3 -3 -5 -59 -5 -125 -1 -98 2 -120
14 -122 8 -2 283 -4 610 -3 l595 0 1 855 c0 836 1 856 21 900 43 97 132 154
243 154 137 0 243 -88 265 -222 l7 -43 126 3 127 3 -4 44 c-7 99 -61 222 -135
308 -112 129 -314 193 -492 157z"/>
</g>
</svg>
